/* XPM */
static char *_5307cd9640448d8a30b3631525fc269GvHINhyaelACqKOR[] = {
/* columns rows colors chars-per-pixel */
"96 96 5 1 ",
"  c black",
". c #10701F",
"X c #1A9C2F",
"o c #22DB17",
"O c #F0FF00",
/* pixels */
"                                                                                                ",
"                                                                                                ",
"                                                                                                ",
"                                    XXXXXXXXXXXXXXXXXXXXXXXX                                    ",
"                                    XXXXXXXXXXXXXXXXXXXXXXXX                                    ",
"                                    XXXXXXXXXXXXXXXXXXXXXXXX                                    ",
"                           XXXXXXXXX........................XXXXXXXXX                           ",
"                           XXXXXXXXX........................XXXXXXXXX                           ",
"                           XXXXXXXXX........................XXXXXXXXX                           ",
"                        XXX.........XXXXXXXXXXXXXXXXXXXXXXXX.........XXX                        ",
"                        XXX.........XXXXXXXXXXXXXXXXXXXXXXXX.........XXX                        ",
"                        XXX.........XXXXXXXXXXXXXXXXXXXXXXXX.........XXX                        ",
"                  XXXXXX...XXXXXXXXXXXXoooooooooooooooXXXXXXXXXXXXXXX...XXXXXX                  ",
"                  XXXXXX...XXXXXXXXXXXXoooooooooooooooXXXXXXXXXXXXXXX...XXXXXX                  ",
"                  XXXXXX...XXXXXXXXXXXXoooooooooooooooXXXXXXXXXXXXXXX...XXXXXX                  ",
"               XXX......XXXXXXooooooooooooooooooooooooooooooooooooXXXXXX......XXX               ",
"               XXX......XXXXXXooooooooooooooooooooooooooooooooooooXXXXXX......XXX               ",
"               XXX......XXXXXXooooooooooooooooooooooooooooooooooooXXXXXX......XXX               ",
"            XXX......XXXXXXooooooooooooooooooooooooooooooooooooooooooXXXXXX......XXX            ",
"            XXX......XXXXXXooooooooooooooooooooooooooooooooooooooooooXXXXXX......XXX            ",
"            XXX......XXXXXXooooooooooooooooooooooooooooooooooooooooooXXXXXX......XXX            ",
"            XXX...XXXXXXooooooooooooooooooooooooooooooooooooooooooooooooXXXXXX...XXX            ",
"            XXX...XXXXXXooooooooooooooooooooooooooooooooooooooooooooooooXXXXXX...XXX            ",
"            XXX...XXXXXXooooooooooooooooooooooooooooooooooooooooooooooooXXXXXX...XXX            ",
"         XXX......XXXooooooooooooooooooooooooooooooooooooooooooooooooooooooXXX......XXX         ",
"         XXX......XXXooooooooooooooooooooooooooooooooooooooooooooooooooooooXXX......XXX         ",
"         XXX......XXXooooooooooooooooooooooooooooooooooooooooooooooooooooooXXX......XXX         ",
"      XXX......XXXXXXooooooooooooooooooooooooooooooooooooooooooooooooooooooXXXXXX......XXX      ",
"      XXX......XXXXXXooooooooooooooooooooooooooooooooooooooooooooooooooooooXXXXXX......XXX      ",
"      XXX......XXXXXXooooooooooooooooooooooooooooooooooooooooooooooooooooooXXXXXX......XXX      ",
"      XXX...XXXXXXooooooooooooooooooooooooooooooooooooooooooooooooooooooooooooXXXXXX...XXX      ",
"      XXX...XXXXXXooooooooooooooooooooooooooooooooooooooooooooooooooooooooooooXXXXXX...XXX      ",
"      XXX...XXXXXXooooooooooooooooooooooooooooooooooooooooooooooooooooooooooooXXXXXX...XXX      ",
"      XXX...XXXooooooooooooooooooooooooooooooooooooooooooooooooooooooooooooooooooXXX...XXX      ",
"      XXX...XXXooooooooooooooooooooooooooooooooooooooooooooooooooooooooooooooooooXXX...XXX      ",
"      XXX...XXXooooooooooooooooooooooooooooooooooooooooooooooooooooooooooooooooooXXX...XXX      ",
"   XXX......XXXoooooo   ooooooooooooooo                           oooooooooooooooXXXXXX...XXX   ",
"   XXX......XXXoooooo   ooooooooooooooo                           oooooooooooooooXXXXXX...XXX   ",
"   XXX......XXXoooooo   ooooooooooooooo                           oooooooooooooooXXXXXX...XXX   ",
"   XXX...XXXoooooooooooo   ooooooooo   ooooooooooooooooooooooooooo   oooooooooooooooXXX...XXX   ",
"   XXX...XXXoooooooooooo   ooooooooo   ooooooooooooooooooooooooooo   oooooooooooooooXXX...XXX   ",
"   XXX...XXXoooooooooooo   ooooooooo   ooooooooooooooooooooooooooo   oooooooooooooooXXX...XXX   ",
"   XXX...XXXooooooooooooooo         ooo   ooo   ooo   oooOOOooooooooo   ooooooooooooXXX...XXX   ",
"   XXX...XXXooooooooooooooo         ooo   ooo   ooo   oooOOOooooooooo   ooooooooooooXXX...XXX   ",
"   XXX...XXXooooooooooooooo         ooo   ooo   ooo   oooOOOooooooooo   ooooooooooooXXX...XXX   ",
"   XXX...XXXooooooooooooooo      oooooo   ooo   ooo   ooooooooooooooo   ooooooooooooXXX...XXX   ",
"   XXX...XXXooooooooooooooo      oooooo   ooo   ooo   ooooooooooooooo   ooooooooooooXXX...XXX   ",
"   XXX...XXXooooooooooooooo      oooooo   ooo   ooo   ooooooooooooooo   ooooooooooooXXX...XXX   ",
"   XXX...XXXoooooooooooo   ooo   ooooooooooooooooooooooooooooooooo   oooooooooooooooXXX...XXX   ",
"   XXX...XXXoooooooooooo   ooo   ooooooooooooooooooooooooooooooooo   oooooooooooooooXXX...XXX   ",
"   XXX...XXXoooooooooooo   ooo   ooooooooooooooooooooooooooooooooo   oooooooooooooooXXX...XXX   ",
"   XXX...XXXooooooooo   ooooooooo                                 ooooooooooooooooooXXX...XXX   ",
"   XXX...XXXooooooooo   ooooooooo                                 ooooooooooooooooooXXX...XXX   ",
"   XXX...XXXooooooooo   ooooooooo                                 ooooooooooooooooooXXX...XXX   ",
"   XXX...XXXoooooooooooooooooooooooooooooo      ooooooooooooooooooooooooooooooooooooXXX...XXX   ",
"   XXX...XXXoooooooooooooooooooooooooooooo      ooooooooooooooooooooooooooooooooooooXXX...XXX   ",
"   XXX...XXXoooooooooooooooooooooooooooooo      ooooooooooooooooooooooooooooooooooooXXX...XXX   ",
"   XXX...XXXXXXooooooooooooooooooooooooooooooooooooooooooooooooooooooooooooooooooXXXXXX...XXX   ",
"   XXX...XXXXXXooooooooooooooooooooooooooooooooooooooooooooooooooooooooooooooooooXXXXXX...XXX   ",
"   XXX...XXXXXXooooooooooooooooooooooooooooooooooooooooooooooooooooooooooooooooooXXXXXX...XXX   ",
"      XXX...XXXooooooooooooooooooooooooooooooooooooooooooooooooooooooooooooooooooXXX...XXX      ",
"      XXX...XXXooooooooooooooooooooooooooooooooooooooooooooooooooooooooooooooooooXXX...XXX      ",
"      XXX...XXXooooooooooooooooooooooooooooooooooooooooooooooooooooooooooooooooooXXX...XXX      ",
"      XXX...XXXooooooooooooooooooooooooooooooooooooooooooooooooooooooooooooooooooXXX...XXX      ",
"      XXX...XXXooooooooooooooooooooooooooooooooooooooooooooooooooooooooooooooooooXXX...XXX      ",
"      XXX...XXXooooooooooooooooooooooooooooooooooooooooooooooooooooooooooooooooooXXX...XXX      ",
"      XXX...XXXXXXooooooooooooooooooooooooooooooooooooooooooooooooooooooooooooXXXXXX...XXX      ",
"      XXX...XXXXXXooooooooooooooooooooooooooooooooooooooooooooooooooooooooooooXXXXXX...XXX      ",
"      XXX...XXXXXXooooooooooooooooooooooooooooooooooooooooooooooooooooooooooooXXXXXX...XXX      ",
"         XXX......XXXooooooooooooooooooooooooooooooooooooooooooooooooooooooXXX......XXX         ",
"         XXX......XXXooooooooooooooooooooooooooooooooooooooooooooooooooooooXXX......XXX         ",
"         XXX......XXXooooooooooooooooooooooooooooooooooooooooooooooooooooooXXX......XXX         ",
"            XXX...XXXXXXooooooooooooooooooooooooooooooooooooooooooooooooXXXXXX...XXX            ",
"            XXX...XXXXXXooooooooooooooooooooooooooooooooooooooooooooooooXXXXXX...XXX            ",
"            XXX...XXXXXXooooooooooooooooooooooooooooooooooooooooooooooooXXXXXX...XXX            ",
"            XXX......XXXXXXooooooooooooooooooooooooooooooooooooooooooXXXXXX......XXX            ",
"            XXX......XXXXXXooooooooooooooooooooooooooooooooooooooooooXXXXXX......XXX            ",
"            XXX......XXXXXXooooooooooooooooooooooooooooooooooooooooooXXXXXX......XXX            ",
"               XXX.........XXXooooooooooooooooooooooooooooooooooooXXX.........XXX               ",
"               XXX.........XXXooooooooooooooooooooooooooooooooooooXXX.........XXX               ",
"               XXX.........XXXooooooooooooooooooooooooooooooooooooXXX.........XXX               ",
"                  XXXXXX......oooooooooooooooooooooooooooooooooooo......XXXXXX                  ",
"                  XXXXXX......oooooooooooooooooooooooooooooooooooo......XXXXXX                  ",
"                  XXXXXX......oooooooooooooooooooooooooooooooooooo......XXXXXX                  ",
"                        XXX.........oooooooooooooooooooooooo.........XXX                        ",
"                        XXX.........oooooooooooooooooooooooo.........XXX                        ",
"                        XXX.........oooooooooooooooooooooooo.........XXX                        ",
"                           XXXXXXXXX........................XXXXXXXXX                           ",
"                           XXXXXXXXX........................XXXXXXXXX                           ",
"                           XXXXXXXXX........................XXXXXXXXX                           ",
"                                    XXXXXXXXXXXXXXXXXXXXXXXX                                    ",
"                                    XXXXXXXXXXXXXXXXXXXXXXXX                                    ",
"                                    XXXXXXXXXXXXXXXXXXXXXXXX                                    ",
"                                                                                                ",
"                                                                                                ",
"                                                                                                "
};
