/* XPM */
static char *d95f6291794f49919c0c076589155f44MucKYfDpuv2lOStW[] = {
/* columns rows colors chars-per-pixel */
"96 96 4 1 ",
"  c black",
". c #10F60D",
"X c #0EE76A",
"o c #8D968D",
/* pixels */
"...............XXX.....................XXX......................................................",
"...............XXX.....................XXX......................................................",
"...............XXX.....................XXX......................................................",
"............XXXXXX..................XXXXXX......XXX......XXX..................XXX...............",
"............XXXXXX..................XXXXXX......XXX......XXX..................XXX...............",
"............XXXXXX..................XXXXXX......XXX......XXX..................XXX...............",
"...   ......XXX.........XXX.........XXXXXXXXX...XXX......XXX.........XXX......XXX...............",
"...   ......XXX.........XXX.........XXXXXXXXX...XXX......XXX.........XXX......XXX...............",
"...   ......XXX.........XXX.........XXXXXXXXX...XXX......XXX.........XXX......XXX...............",
"............XXX...........................XXXXXX.........XXXXXX...............XXX...............",
"............XXX...........................XXXXXX.........XXXXXX...............XXX...............",
"............XXX...........................XXXXXX.........XXXXXX...............XXX...............",
".........XXXXXX...   ......XXX..................XXX...............   ...XXXXXXXXXXXX...   ......",
".........XXXXXX...   ......XXX..................XXX...............   ...XXXXXXXXXXXX...   ......",
".........XXXXXX...   ......XXX..................XXX...............   ...XXXXXXXXXXXX...   ......",
"......XXXXXX............................................................XXX.....................",
"......XXXXXX............................................................XXX.....................",
"......XXXXXX............................................................XXX.....................",
"...   ........................                                          ........................",
"...   ........................                                          ........................",
"...   ........................                                          ........................",
"...............               ooooooooooooooooooooooooooooooooooooooo            ...............",
"...............               ooooooooooooooooooooooooooooooooooooooo            ...............",
"...............               ooooooooooooooooooooooooooooooooooooooo            ...............",
"............   ooooooooooooooooooooooooooo         ooooooooo   ooooooooooooooo         .........",
"............   ooooooooooooooooooooooooooo         ooooooooo   ooooooooooooooo         .........",
"............   ooooooooooooooooooooooooooo         ooooooooo   ooooooooooooooo         .........",
"......      oooooo   oooooo      ooooooooooooooo   ooooooooooooooooooooo      oooooo         ...",
"......      oooooo   oooooo      ooooooooooooooo   ooooooooooooooooooooo      oooooo         ...",
"......      oooooo   oooooo      ooooooooooooooo   ooooooooooooooooooooo      oooooo         ...",
"      ooooooooo   ooooooooooooooo                                    oooooo   oooooooooooo      ",
"      ooooooooo   ooooooooooooooo                                    oooooo   oooooooooooo      ",
"      ooooooooo   ooooooooooooooo                                    oooooo   oooooooooooo      ",
"   oooooo   oooooo                                                               oooooooooooo   ",
"   oooooo   oooooo                                                               oooooooooooo   ",
"   oooooo   oooooo                                                               oooooooooooo   ",
"   oooooo   ooo                                                                        oooooo   ",
"   oooooo   ooo                                                                        oooooo   ",
"   oooooo   ooo                                                                        oooooo   ",
"...      ooo                                                                     oooooooooooo   ",
"...      ooo                                                                     oooooooooooo   ",
"...      ooo                                                                     oooooooooooo   ",
"......   oooooooooooooooooo                                          ooooooooooooooo      ooo   ",
"......   oooooooooooooooooo                                          ooooooooooooooo      ooo   ",
"......   oooooooooooooooooo                                          ooooooooooooooo      ooo   ",
"......   ooo      oooooo   oooooooooooooooooooooooooooooooooooooooooooooooooooooooooooooooooo   ",
"......   ooo      oooooo   oooooooooooooooooooooooooooooooooooooooooooooooooooooooooooooooooo   ",
"......   ooo      oooooo   oooooooooooooooooooooooooooooooooooooooooooooooooooooooooooooooooo   ",
"......      ooooooooo      oooooooooooo      oooooooooooo      oooooooooooo      ooooooooo      ",
"......      ooooooooo      oooooooooooo      oooooooooooo      oooooooooooo      ooooooooo      ",
"......      ooooooooo      oooooooooooo      oooooooooooo      oooooooooooo      ooooooooo      ",
"......         ooooooooooooooo      oooooo   ooooooooooooooooooooooooooooooooooooooo      ......",
"......         ooooooooooooooo      oooooo   ooooooooooooooooooooooooooooooooooooooo      ......",
"......         ooooooooooooooo      oooooo   ooooooooooooooooooooooooooooooooooooooo      ......",
"............            oooooooooooooooooooooooo   ooooooooooooooo   ooooooooo         .........",
"............            oooooooooooooooooooooooo   ooooooooooooooo   ooooooooo         .........",
"............            oooooooooooooooooooooooo   ooooooooooooooo   ooooooooo         .........",
".....................               ooooooooooooooooooooooooooooooooo            ...............",
".....................               ooooooooooooooooooooooooooooooooo            ...............",
".....................               ooooooooooooooooooooooooooooooooo            ...............",
".........XXX.....................                                    ...........................",
".........XXX.....................                                    ...........................",
".........XXX.....................                                    ...........................",
"........................................................................XXX......XXX............",
"........................................................................XXX......XXX............",
"........................................................................XXX......XXX............",
"......XXX...............XXX...XXX..............................XXXXXX............XXXXXX.........",
"......XXX...............XXX...XXX..............................XXXXXX............XXXXXX.........",
"......XXX...............XXX...XXX..............................XXXXXX............XXXXXX.........",
"...............   ...........................XXX......XXX.........XXX...      ......XXXXXX......",
"...............   ...........................XXX......XXX.........XXX...      ......XXXXXX......",
"...............   ...........................XXX......XXX.........XXX...      ......XXXXXX......",
"..................XXX........................XXX..................XXX..................XXX......",
"..................XXX........................XXX..................XXX..................XXX......",
"..................XXX........................XXX..................XXX..................XXX......",
".........XXX......XXX...      ............XXXXXX...............XXXXXX.........XXX......XXX......",
".........XXX......XXX...      ............XXXXXX...............XXXXXX.........XXX......XXX......",
".........XXX......XXX...      ............XXXXXX...............XXXXXX.........XXX......XXX......",
".........XXX......XXX.........XXX......XXXXXX.........XXX......XXXXXXXXX...............XXXXXX...",
".........XXX......XXX.........XXX......XXXXXX.........XXX......XXXXXXXXX...............XXXXXX...",
".........XXX......XXX.........XXX......XXXXXX.........XXX......XXXXXXXXX...............XXXXXX...",
"......XXXXXX......XXX..................XXX...........................XXXXXX.........XXX...XXX...",
"......XXXXXX......XXX..................XXX...........................XXXXXX.........XXX...XXX...",
"......XXXXXX......XXX..................XXX...........................XXXXXX.........XXX...XXX...",
"......XXX.........XXXXXX..............................      .........XXX........................",
"......XXX.........XXXXXX..............................      .........XXX........................",
"......XXX.........XXXXXX..............................      .........XXX........................",
".............................................XXX..................XXX......   ..................",
".............................................XXX..................XXX......   ..................",
".............................................XXX..................XXX......   ..................",
".................................................................................XXX............",
".................................................................................XXX............",
".................................................................................XXX............",
"...............   ......XXXXXX..................................................................",
"...............   ......XXXXXX..................................................................",
"...............   ......XXXXXX.................................................................."
};
