/* XPM */
static char *de2c6ff3cbf14272874f47884ad89054aFNdXJSGwZneiEce[] = {
/* columns rows colors chars-per-pixel */
"96 96 4 1 ",
"  c black",
". c #565252",
"X c #B415A8",
"o c white",
/* pixels */
"ooooooooooooooooooooooooooo                                                ooooooooooooooooooooo",
"ooooooooooooooooooooooooooo                                                ooooooooooooooooooooo",
"ooooooooooooooooooooooooooo                                                ooooooooooooooooooooo",
"ooooooooooooooooooooooooooo   .......................................      ooooooooooooooooooooo",
"ooooooooooooooooooooooooooo   .......................................      ooooooooooooooooooooo",
"ooooooooooooooooooooooooooo   .......................................      ooooooooooooooooooooo",
"ooooooooooooooooooooooooooo   .......................................      ooooooooooooooooooooo",
"ooooooooooooooooooooooooooo   .......................................      ooooooooooooooooooooo",
"ooooooooooooooooooooooooooo   .......................................      ooooooooooooooooooooo",
"ooooooooooooooooooooooooooo                                                ooooooooooooooooooooo",
"ooooooooooooooooooooooooooo                                                ooooooooooooooooooooo",
"ooooooooooooooooooooooooooo                                                ooooooooooooooooooooo",
"ooooooooooooooooooooooooooo   ..........................................   ooooooooooooooooooooo",
"ooooooooooooooooooooooooooo   ..........................................   ooooooooooooooooooooo",
"ooooooooooooooooooooooooooo   ..........................................   ooooooooooooooooooooo",
"oooooooooooooooooo                                                               ooooooooooooooo",
"oooooooooooooooooo                                                               ooooooooooooooo",
"oooooooooooooooooo                                                               ooooooooooooooo",
"                     oooooo                                          ooo                        ",
"                     oooooo                                          ooo                        ",
"                     oooooo                                          ooo                        ",
"oooooooooooooooooooooooooooooo                                    oooooooooooooooooooooooooooooo",
"oooooooooooooooooooooooooooooo                                    oooooooooooooooooooooooooooooo",
"oooooooooooooooooooooooooooooo                                    oooooooooooooooooooooooooooooo",
"oooooooooooooooooo            XXXXXXXXXXXXXXXXXXXXXXXXXXXXXXXXXXXX            oooooooooooooooooo",
"oooooooooooooooooo            XXXXXXXXXXXXXXXXXXXXXXXXXXXXXXXXXXXX            oooooooooooooooooo",
"oooooooooooooooooo            XXXXXXXXXXXXXXXXXXXXXXXXXXXXXXXXXXXX            oooooooooooooooooo",
"ooooooooo         XXXXXXXXXXXXXXXXXXXXXXXXXXXXXXXXXXXXXXXXXXXXXXXXXXXXXXXXXXXX         ooooooooo",
"ooooooooo         XXXXXXXXXXXXXXXXXXXXXXXXXXXXXXXXXXXXXXXXXXXXXXXXXXXXXXXXXXXX         ooooooooo",
"ooooooooo         XXXXXXXXXXXXXXXXXXXXXXXXXXXXXXXXXXXXXXXXXXXXXXXXXXXXXXXXXXXX         ooooooooo",
"oooooo   XXXXXXXXXXXXXXXXXXXXXXXXXXXXXXXXXXXXXXXXXXXXXXXXXXXXXXXXXXXXXXXXXXXXXXXXXXXXXX   oooooo",
"oooooo   XXXXXXXXXXXXXXXXXXXXXXXXXXXXXXXXXXXXXXXXXXXXXXXXXXXXXXXXXXXXXXXXXXXXXXXXXXXXXX   oooooo",
"oooooo   XXXXXXXXXXXXXXXXXXXXXXXXXXXXXXXXXXXXXXXXXXXXXXXXXXXXXXXXXXXXXXXXXXXXXXXXXXXXXX   oooooo",
"ooo   XXXXXXXXXXXXXXXXXXXXXXXX   XXXXXXXXXXXXXXXXXXXXXXXX   XXXXXXXXXXXXXXXXXXXXXXXXXXXXXX   ooo",
"ooo   XXXXXXXXXXXXXXXXXXXXXXXX   XXXXXXXXXXXXXXXXXXXXXXXX   XXXXXXXXXXXXXXXXXXXXXXXXXXXXXX   ooo",
"ooo   XXXXXXXXXXXXXXXXXXXXXXXX   XXXXXXXXXXXXXXXXXXXXXXXX   XXXXXXXXXXXXXXXXXXXXXXXXXXXXXX   ooo",
"   XXXXXXXXXXXXXXXXXXXXXXXXXXXXXXXXXXXXXXXXXXXXXXXXXXXXXXXXXXXXXXXXXXXXXXXXXXXXXXXXXXXXXXXXXX   ",
"   XXXXXXXXXXXXXXXXXXXXXXXXXXXXXXXXXXXXXXXXXXXXXXXXXXXXXXXXXXXXXXXXXXXXXXXXXXXXXXXXXXXXXXXXXX   ",
"   XXXXXXXXXXXXXXXXXXXXXXXXXXXXXXXXXXXXXXXXXXXXXXXXXXXXXXXXXXXXXXXXXXXXXXXXXXXXXXXXXXXXXXXXXX   ",
"   XXXXXXXXXXXXXXXXXXXXXXXXXXXXXXXXXXXXXXXXXXXXXXXXXXXXXXXXXXXXXXXXXXXXXXXXXXXXXXXXXXXXXXXXXX   ",
"   XXXXXXXXXXXXXXXXXXXXXXXXXXXXXXXXXXXXXXXXXXXXXXXXXXXXXXXXXXXXXXXXXXXXXXXXXXXXXXXXXXXXXXXXXX   ",
"   XXXXXXXXXXXXXXXXXXXXXXXXXXXXXXXXXXXXXXXXXXXXXXXXXXXXXXXXXXXXXXXXXXXXXXXXXXXXXXXXXXXXXXXXXX   ",
"   XXXXXXXXXXXXXXXXXXXXX   XXXXXXXXXXXXXXXXXXXXXXXXXXXXXXXXXXXX      XXXXXXXXXXXXXXXXXXXXXXXX   ",
"   XXXXXXXXXXXXXXXXXXXXX   XXXXXXXXXXXXXXXXXXXXXXXXXXXXXXXXXXXX      XXXXXXXXXXXXXXXXXXXXXXXX   ",
"   XXXXXXXXXXXXXXXXXXXXX   XXXXXXXXXXXXXXXXXXXXXXXXXXXXXXXXXXXX      XXXXXXXXXXXXXXXXXXXXXXXX   ",
"ooo   XXXXXXXXXXXXXXXXXX                                          XXXXXXXXXXXXXXXXXXXXXXXX   ooo",
"ooo   XXXXXXXXXXXXXXXXXX                                          XXXXXXXXXXXXXXXXXXXXXXXX   ooo",
"ooo   XXXXXXXXXXXXXXXXXX                                          XXXXXXXXXXXXXXXXXXXXXXXX   ooo",
"oooooo   XXXXXXXXXXXXXXXXXXXXXXXXXXXXXXXXXXXXXXXXXXXXXXXXXXXXXXXXXXXXXXXXXXXXXXXXXXXXXX   oooooo",
"oooooo   XXXXXXXXXXXXXXXXXXXXXXXXXXXXXXXXXXXXXXXXXXXXXXXXXXXXXXXXXXXXXXXXXXXXXXXXXXXXXX   oooooo",
"oooooo   XXXXXXXXXXXXXXXXXXXXXXXXXXXXXXXXXXXXXXXXXXXXXXXXXXXXXXXXXXXXXXXXXXXXXXXXXXXXXX   oooooo",
"ooo               XXXXXXXXXXXXXXXXXXXXXXXXXXXXXXXXXXXXXXXXXXXXXXXXXXXXXXXXXXXX               ooo",
"ooo               XXXXXXXXXXXXXXXXXXXXXXXXXXXXXXXXXXXXXXXXXXXXXXXXXXXXXXXXXXXX               ooo",
"ooo               XXXXXXXXXXXXXXXXXXXXXXXXXXXXXXXXXXXXXXXXXXXXXXXXXXXXXXXXXXXX               ooo",
"ooo   oooooooooooo            XXXXXXXXXXXXXXXXXXXXXXXXXXXXXXXXXXXX            oooooooooooo      ",
"ooo   oooooooooooo            XXXXXXXXXXXXXXXXXXXXXXXXXXXXXXXXXXXX            oooooooooooo      ",
"ooo   oooooooooooo            XXXXXXXXXXXXXXXXXXXXXXXXXXXXXXXXXXXX            oooooooooooo      ",
"ooo   oooooooooooooooooooooooo                                    ooooooooooooooooooooooooooo   ",
"ooo   oooooooooooooooooooooooo                                    ooooooooooooooooooooooooooo   ",
"ooo   oooooooooooooooooooooooo                                    ooooooooooooooooooooooooooo   ",
"ooo   oooooooooooooooooooooooo   oooooooooooooooooooooooo   ooooooooooooooooooooooooooooooooo   ",
"ooo   oooooooooooooooooooooooo   oooooooooooooooooooooooo   ooooooooooooooooooooooooooooooooo   ",
"ooo   oooooooooooooooooooooooo   oooooooooooooooooooooooo   ooooooooooooooooooooooooooooooooo   ",
"      oooooooooooooooooooooooo   oooooooooooooooooooooooo   ooooooooooooooooooooooooooooooooo   ",
"      oooooooooooooooooooooooo   oooooooooooooooooooooooo   ooooooooooooooooooooooooooooooooo   ",
"      oooooooooooooooooooooooo   oooooooooooooooooooooooo   ooooooooooooooooooooooooooooooooo   ",
"   oooooooooooooooooooooooo      oooooooooooooooooooooooo   ooooooooooooooooooooooooooooooooo   ",
"   oooooooooooooooooooooooo      oooooooooooooooooooooooo   ooooooooooooooooooooooooooooooooo   ",
"   oooooooooooooooooooooooo      oooooooooooooooooooooooo   ooooooooooooooooooooooooooooooooo   ",
"   ooooooooooooooooooooo      ooooooooooooooooooooooooooo         ooooooooooooooooooooooooooo   ",
"   ooooooooooooooooooooo      ooooooooooooooooooooooooooo         ooooooooooooooooooooooooooo   ",
"   ooooooooooooooooooooo      ooooooooooooooooooooooooooo         ooooooooooooooooooooooooooo   ",
"   ooooooooooooooooooooo   oooooooooooooooooooooooooooooooooooo   ooooooooooooooooooooooooooo   ",
"   ooooooooooooooooooooo   oooooooooooooooooooooooooooooooooooo   ooooooooooooooooooooooooooo   ",
"   ooooooooooooooooooooo   oooooooooooooooooooooooooooooooooooo   ooooooooooooooooooooooooooo   ",
"ooooooooooooooooooooo      oooooooooooooooooooooooooooooooooooo      ooooooooooooooooooooooooooo",
"ooooooooooooooooooooo      oooooooooooooooooooooooooooooooooooo      ooooooooooooooooooooooooooo",
"ooooooooooooooooooooo      oooooooooooooooooooooooooooooooooooo      ooooooooooooooooooooooooooo",
"ooooooooooooooooooooo   oooooooooooooooooooooooooooooooooooooooooo      oooooooooooooooooooooooo",
"ooooooooooooooooooooo   oooooooooooooooooooooooooooooooooooooooooo      oooooooooooooooooooooooo",
"ooooooooooooooooooooo   oooooooooooooooooooooooooooooooooooooooooo      oooooooooooooooooooooooo",
"oooooooooooooooooo      oooooooooooooooooooooooooooooooooooooooooooooooo   ooooooooooooooooooooo",
"oooooooooooooooooo      oooooooooooooooooooooooooooooooooooooooooooooooo   ooooooooooooooooooooo",
"oooooooooooooooooo      oooooooooooooooooooooooooooooooooooooooooooooooo   ooooooooooooooooooooo",
"oooooooooooooooooo   ooooooooooooooooooooooooooooooooooooooooooooooooooo   ooooooooooooooooooooo",
"oooooooooooooooooo   ooooooooooooooooooooooooooooooooooooooooooooooooooo   ooooooooooooooooooooo",
"oooooooooooooooooo   ooooooooooooooooooooooooooooooooooooooooooooooooooo   ooooooooooooooooooooo",
"ooooooooooooooo      ooooooooooooooooooooooooooooooooooooooooooooooooooo   ooooooooooooooooooooo",
"ooooooooooooooo      ooooooooooooooooooooooooooooooooooooooooooooooooooo   ooooooooooooooooooooo",
"ooooooooooooooo      ooooooooooooooooooooooooooooooooooooooooooooooooooo   ooooooooooooooooooooo",
"ooooooooooooooo   oooooooooooooooooooooooooooooooooooooooooooooooooooooo   ooooooooooooooooooooo",
"ooooooooooooooo   oooooooooooooooooooooooooooooooooooooooooooooooooooooo   ooooooooooooooooooooo",
"ooooooooooooooo   oooooooooooooooooooooooooooooooooooooooooooooooooooooo   ooooooooooooooooooooo",
"ooooooooooooooo   oooooooooooooooooooooooooooooooooooooooooooooooooooooo   ooooooooooooooooooooo",
"ooooooooooooooo   oooooooooooooooooooooooooooooooooooooooooooooooooooooo   ooooooooooooooooooooo",
"ooooooooooooooo   oooooooooooooooooooooooooooooooooooooooooooooooooooooo   ooooooooooooooooooooo"
};
