/* XPM */
static char *_9815e9f8f654587d627392a627d0cc7lTgww8LW3HvpY3Kw[] = {
/* columns rows colors chars-per-pixel */
"96 96 4 1 ",
"  c black",
". c #1F690D",
"X c #EA7777",
"o c #8DEA77",
/* pixels */
"XXXXXXXXXXXXXXX...XXXXXXXXXXXXXXXXXXXXXXXXXXXXXXXXXXXXXXXXXXoooXXXXXXXXXXXXXXXXXXXXXXXX...XXXXXX",
"XXXXXXXXXXXXXXX...XXXXXXXXXXXXXXXXXXXXXXXXXXXXXXXXXXXXXXXXXXoooXXXXXXXXXXXXXXXXXXXXXXXX...XXXXXX",
"XXXXXXXXXXXXXXX...XXXXXXXXXXXXXXXXXXXXXXXXXXXXXXXXXXXXXXXXXXoooXXXXXXXXXXXXXXXXXXXXXXXX...XXXXXX",
"...XXXXXXXXXXXX...XXXXXXXXXXXX      XXXXXXXXXXXXXXXXXXXXXoooooooooXXXXXXXXXXXXXXXXXX......XXXXXX",
"...XXXXXXXXXXXX...XXXXXXXXXXXX      XXXXXXXXXXXXXXXXXXXXXoooooooooXXXXXXXXXXXXXXXXXX......XXXXXX",
"...XXXXXXXXXXXX...XXXXXXXXXXXX      XXXXXXXXXXXXXXXXXXXXXoooooooooXXXXXXXXXXXXXXXXXX......XXXXXX",
"...XXXXXXXXXXXX...XXXXXXXXXXXXXXXXXXXXXXXXXXXXXXXXXXXXooooooXXXooooooXXXXXXXXXXXX......XXXXXXXXX",
"...XXXXXXXXXXXX...XXXXXXXXXXXXXXXXXXXXXXXXXXXXXXXXXXXXooooooXXXooooooXXXXXXXXXXXX......XXXXXXXXX",
"...XXXXXXXXXXXX...XXXXXXXXXXXXXXXXXXXXXXXXXXXXXXXXXXXXooooooXXXooooooXXXXXXXXXXXX......XXXXXXXXX",
"...XXX   XXXXXX...XXXXXX   XXXXXXXXXXXXXXX      XXXXXXooooooXXXXXXoooXXX............XXXXXXXXXXXX",
"...XXX   XXXXXX...XXXXXX   XXXXXXXXXXXXXXX      XXXXXXooooooXXXXXXoooXXX............XXXXXXXXXXXX",
"...XXX   XXXXXX...XXXXXX   XXXXXXXXXXXXXXX      XXXXXXooooooXXXXXXoooXXX............XXXXXXXXXXXX",
"......         XXX...XXXXXXXXXXXXXXXXXXXXXXXXXXXXXXXXXooooooXXXXXXooo...XXX   XXX...XXXXXXXXXXXX",
"......         XXX...XXXXXXXXXXXXXXXXXXXXXXXXXXXXXXXXXooooooXXXXXXooo...XXX   XXX...XXXXXXXXXXXX",
"......         XXX...XXXXXXXXXXXXXXXXXXXXXXXXXXXXXXXXXooooooXXXXXXooo...XXX   XXX...XXXXXXXXXXXX",
"XXXXXXooooooXXXXXX......XXXXXXXXXXXXXXXXXXXXXXXXXXXoooooo......XXXoooXXXXXXXXXXXXXXXXXXXXXXXXXXX",
"XXXXXXooooooXXXXXX......XXXXXXXXXXXXXXXXXXXXXXXXXXXoooooo......XXXoooXXXXXXXXXXXXXXXXXXXXXXXXXXX",
"XXXXXXooooooXXXXXX......XXXXXXXXXXXXXXXXXXXXXXXXXXXoooooo......XXXoooXXXXXXXXXXXXXXXXXXXXXXXXXXX",
"XXXXXXXXXooooooXXXXXX...XXXXXXXXXXXXXXXXXXXXXXXXXXXoooXXXXXX...ooooooXXXXXXXXXXXXXXX......XXXXXX",
"XXXXXXXXXooooooXXXXXX...XXXXXXXXXXXXXXXXXXXXXXXXXXXoooXXXXXX...ooooooXXXXXXXXXXXXXXX......XXXXXX",
"XXXXXXXXXooooooXXXXXX...XXXXXXXXXXXXXXXXXXXXXXXXXXXoooXXXXXX...ooooooXXXXXXXXXXXXXXX......XXXXXX",
"XXXXXXXXXXXXooooooXXXXXX   XXXXXXXXXXXXXXX.........oooXXXXXXXXXXXXooooooXXXXXXXXXXXXXXX......XXX",
"XXXXXXXXXXXXooooooXXXXXX   XXXXXXXXXXXXXXX.........oooXXXXXXXXXXXXooooooXXXXXXXXXXXXXXX......XXX",
"XXXXXXXXXXXXooooooXXXXXX   XXXXXXXXXXXXXXX.........oooXXXXXXXXXXXXooooooXXXXXXXXXXXXXXX......XXX",
"XXXXXX   XXXXXXooooooXXX...XXXXXXXXX.........XXXXXXoooXXX   XXXXXXXXXoooXXX            XXX...XXX",
"XXXXXX   XXXXXXooooooXXX...XXXXXXXXX.........XXXXXXoooXXX   XXXXXXXXXoooXXX            XXX...XXX",
"XXXXXX   XXXXXXooooooXXX...XXXXXXXXX.........XXXXXXoooXXX   XXXXXXXXXoooXXX            XXX...XXX",
"XXXXXXXXXXXXoooXXXoooooo............XXXXXXXXXXXXXXXooooooXXXXXXXXXXXXoooXXXXXXXXXXXXXXX......XXX",
"XXXXXXXXXXXXoooXXXoooooo............XXXXXXXXXXXXXXXooooooXXXXXXXXXXXXoooXXXXXXXXXXXXXXX......XXX",
"XXXXXXXXXXXXoooXXXoooooo............XXXXXXXXXXXXXXXooooooXXXXXXXXXXXXoooXXXXXXXXXXXXXXX......XXX",
"XXXXXXXXXXXXoooXXXXXXooooooXXXXXXXXXXXXXXXXXXXXXXXXoooXXXXXXXXXXXX...oooooooooXXXXXXXXX...XXXXXX",
"XXXXXXXXXXXXoooXXXXXXooooooXXXXXXXXXXXXXXXXXXXXXXXXoooXXXXXXXXXXXX...oooooooooXXXXXXXXX...XXXXXX",
"XXXXXXXXXXXXoooXXXXXXooooooXXXXXXXXXXXXXXXXXXXXXXXXoooXXXXXXXXXXXX...oooooooooXXXXXXXXX...XXXXXX",
"XXX......oooooo      oooooooooooooooXXXXXX.........oooXXXXXXXXX......XXXooooooXXXXXX......XXXXXX",
"XXX......oooooo      oooooooooooooooXXXXXX.........oooXXXXXXXXX......XXXooooooXXXXXX......XXXXXX",
"XXX......oooooo      oooooooooooooooXXXXXX.........oooXXXXXXXXX......XXXooooooXXXXXX......XXXXXX",
"......XXXooooooXXXXXXoooXXXXXXooooooXXXXXX...XXXXXXoooXXXXXX...XXX...XXXXXXoooooo......XXXXXXXXX",
"......XXXooooooXXXXXXoooXXXXXXooooooXXXXXX...XXXXXXoooXXXXXX...XXX...XXXXXXoooooo......XXXXXXXXX",
"......XXXooooooXXXXXXoooXXXXXXooooooXXXXXX...XXXXXXoooXXXXXX...XXX...XXXXXXoooooo......XXXXXXXXX",
"...XXXXXXXXXoooXXXXXXoooXXXXXXooooooXXX......XXXXXXooooooXXX            XXXXXXoooXXXXXXXXXXXXXXX",
"...XXXXXXXXXoooXXXXXXoooXXXXXXooooooXXX......XXXXXXooooooXXX            XXXXXXoooXXXXXXXXXXXXXXX",
"...XXXXXXXXXoooXXXXXXoooXXXXXXooooooXXX......XXXXXXooooooXXX            XXXXXXoooXXXXXXXXXXXXXXX",
"XXXXXXXXXooooooXXXXXXoooooo   XXXoooXXX...XXXXXX......ooo...XXXXXXXXXXXXXXXooooooXXXXXXXXXXXXXXX",
"XXXXXXXXXooooooXXXXXXoooooo   XXXoooXXX...XXXXXX......ooo...XXXXXXXXXXXXXXXooooooXXXXXXXXXXXXXXX",
"XXXXXXXXXooooooXXXXXXoooooo   XXXoooXXX...XXXXXX......ooo...XXXXXXXXXXXXXXXooooooXXXXXXXXXXXXXXX",
"XXXXXXXXXoooXXXXXXXXXXXXoooXXXXXXoooooo...XXXXXX...XXXooo......XXXXXXXXXoooXXXoooXXXXXXXXXXXXXXX",
"XXXXXXXXXoooXXXXXXXXXXXXoooXXXXXXoooooo...XXXXXX...XXXooo......XXXXXXXXXoooXXXoooXXXXXXXXXXXXXXX",
"XXXXXXXXXoooXXXXXXXXXXXXoooXXXXXXoooooo...XXXXXX...XXXooo......XXXXXXXXXoooXXXoooXXXXXXXXXXXXXXX",
"XXXXXXXXXoooXXXXXXXXXXXXoooXXXXXXXXXooo...XXXXXX...XXXoooXXX......XXXoooXXXXXXooooooXXX      XXX",
"XXXXXXXXXoooXXXXXXXXXXXXoooXXXXXXXXXooo...XXXXXX...XXXoooXXX......XXXoooXXXXXXooooooXXX      XXX",
"XXXXXXXXXoooXXXXXXXXXXXXoooXXXXXXXXXooo...XXXXXX...XXXoooXXX......XXXoooXXXXXXooooooXXX      XXX",
"XXXXXXoooooo      XXXXXXoooXXXXXX...oooXXXXXXXXX...XXXoooXXXXXX......XXX   XXXoooooooooXXXXXXXXX",
"XXXXXXoooooo      XXXXXXoooXXXXXX...oooXXXXXXXXX...XXXoooXXXXXX......XXX   XXXoooooooooXXXXXXXXX",
"XXXXXXoooooo      XXXXXXoooXXXXXX...oooXXXXXXXXX...XXXoooXXXXXX......XXX   XXXoooooooooXXXXXXXXX",
"XXXXXXoooXXXXXXXXXXXXooooooXXX...XXXooooooXXXXXX...XXXooooooXXXXXX......XXXXXXoooXXXooooooXXXXXX",
"XXXXXXoooXXXXXXXXXXXXooooooXXX...XXXooooooXXXXXX...XXXooooooXXXXXX......XXXXXXoooXXXooooooXXXXXX",
"XXXXXXoooXXXXXXXXXXXXooooooXXX...XXXooooooXXXXXX...XXXooooooXXXXXX......XXXXXXoooXXXooooooXXXXXX",
"   XXXoooXXXXXXXXXXXXooo.........XXXXXXoooXXXXXX...XXXXXXooooooXXXXXX...oooooooooXXXXXXoooXXXXXX",
"   XXXoooXXXXXXXXXXXXooo.........XXXXXXoooXXXXXX...XXXXXXooooooXXXXXX...oooooooooXXXXXXoooXXXXXX",
"   XXXoooXXXXXXXXXXXXooo.........XXXXXXoooXXXXXX...XXXXXXooooooXXXXXX...oooooooooXXXXXXoooXXXXXX",
"XXXXXXXXXoooXXXXXXoooooo...XXXXXXXXXXXXoooXXX......XXXXXXXXXoooooooooooooooXXXXXXXXXXXXoooXXXXXX",
"XXXXXXXXXoooXXXXXXoooooo...XXXXXXXXXXXXoooXXX......XXXXXXXXXoooooooooooooooXXXXXXXXXXXXoooXXXXXX",
"XXXXXXXXXoooXXXXXXoooooo...XXXXXXXXXXXXoooXXX......XXXXXXXXXoooooooooooooooXXXXXXXXXXXXoooXXXXXX",
"XXX......oooooooooXXX...XXXXXXooooooooooooXXX...XXXXXXoooooooooXXXooooooXXXXXXXXXXXXXXXooooooXXX",
"XXX......oooooooooXXX...XXXXXXooooooooooooXXX...XXXXXXoooooooooXXXooooooXXXXXXXXXXXXXXXooooooXXX",
"XXX......oooooooooXXX...XXXXXXooooooooooooXXX...XXXXXXoooooooooXXXooooooXXXXXXXXXXXXXXXooooooXXX",
"......XXXXXXoooXXX...XXXXXXoooooooooXXXXXX......XXXXXXoooXXXXXXXXXXXX......XXX      XXXXXXoooooo",
"......XXXXXXoooXXX...XXXXXXoooooooooXXXXXX......XXXXXXoooXXXXXXXXXXXX......XXX      XXXXXXoooooo",
"......XXXXXXoooXXX...XXXXXXoooooooooXXXXXX......XXXXXXoooXXXXXXXXXXXX......XXX      XXXXXXoooooo",
"XXXXXXXXXooooooXXXXXX...ooooooXXXXXXXXX......XXXXXXXXXooooooXXXXXX.........XXXXXXXXXXXXXXXXXXooo",
"XXXXXXXXXooooooXXXXXX...ooooooXXXXXXXXX......XXXXXXXXXooooooXXXXXX.........XXXXXXXXXXXXXXXXXXooo",
"XXXXXXXXXooooooXXXXXX...ooooooXXXXXXXXX......XXXXXXXXXooooooXXXXXX.........XXXXXXXXXXXXXXXXXXooo",
"XXX   XXXooooooXXXXXXoooooooooXXXXXXXXX...XXXXXX   XXXXXXoooXXX......XXX......XXXXXXXXXXXXXXXXXX",
"XXX   XXXooooooXXXXXXoooooooooXXXXXXXXX...XXXXXX   XXXXXXoooXXX......XXX......XXXXXXXXXXXXXXXXXX",
"XXX   XXXooooooXXXXXXoooooooooXXXXXXXXX...XXXXXX   XXXXXXoooXXX......XXX......XXXXXXXXXXXXXXXXXX",
"XXXXXXXXXXXXooooooooooooXXXooooooooo......XXXXXXXXXXXXXXXoooXXX...XXXXXXXXX...XXXXXXXXXXXXXXXXXX",
"XXXXXXXXXXXXooooooooooooXXXooooooooo......XXXXXXXXXXXXXXXoooXXX...XXXXXXXXX...XXXXXXXXXXXXXXXXXX",
"XXXXXXXXXXXXooooooooooooXXXooooooooo......XXXXXXXXXXXXXXXoooXXX...XXXXXXXXX...XXXXXXXXXXXXXXXXXX",
"XXXXXXXXXXXXoooooooooXXX...XXXXXXooooooXXX         XXXXXXooooooooooooXXXXXX.........XXXXXXXXXXXX",
"XXXXXXXXXXXXoooooooooXXX...XXXXXXooooooXXX         XXXXXXooooooooooooXXXXXX.........XXXXXXXXXXXX",
"XXXXXXXXXXXXoooooooooXXX...XXXXXXooooooXXX         XXXXXXooooooooooooXXXXXX.........XXXXXXXXXXXX",
"XXXXXXXXX...XXXoooXXXXXX...XXX...XXXoooXXXXXXXXXXXXXXXXXXXXX...XXXooooooXXXXXXXXX......XXXXXXXXX",
"XXXXXXXXX...XXXoooXXXXXX...XXX...XXXoooXXXXXXXXXXXXXXXXXXXXX...XXXooooooXXXXXXXXX......XXXXXXXXX",
"XXXXXXXXX...XXXoooXXXXXX...XXX...XXXoooXXXXXXXXXXXXXXXXXXXXX...XXXooooooXXXXXXXXX......XXXXXXXXX",
"XXXXXX......XXXooooooXXX...XXX...XXXoooooooooXXXXXXXXXXXX......XXXXXXoooXXXXXXXXXXXX...XXXXXXXXX",
"XXXXXX......XXXooooooXXX...XXX...XXXoooooooooXXXXXXXXXXXX......XXXXXXoooXXXXXXXXXXXX...XXXXXXXXX",
"XXXXXX......XXXooooooXXX...XXX...XXXoooooooooXXXXXXXXXXXX......XXXXXXoooXXXXXXXXXXXX...XXXXXXXXX",
"XXX...XXXXXXXXXXXXoooXXXXXX...XXX   XXXXXXoooXXXXXXXXX......XXXXXXXXXooooooXXXXXXXXX............",
"XXX...XXXXXXXXXXXXoooXXXXXX...XXX   XXXXXXoooXXXXXXXXX......XXXXXXXXXooooooXXXXXXXXX............",
"XXX...XXXXXXXXXXXXoooXXXXXX...XXX   XXXXXXoooXXXXXXXXX......XXXXXXXXXooooooXXXXXXXXX............",
"XXX...XXX      XXXoooXXX......XXXXXXXXXoooXXXXXXXXX......XXXXXXXXXXXXXXXooooooXXX   XXXXXXXXXXXX",
"XXX...XXX      XXXoooXXX......XXXXXXXXXoooXXXXXXXXX......XXXXXXXXXXXXXXXooooooXXX   XXXXXXXXXXXX",
"XXX...XXX      XXXoooXXX......XXXXXXXXXoooXXXXXXXXX......XXXXXXXXXXXXXXXooooooXXX   XXXXXXXXXXXX",
"XXX...XXXXXXXXXXXXooo...XXX...XXXXXXXXXooooooXXXXXX...XXXXXX      XXXXXXXXXoooXXXXXXXXXXXXXXXXXX",
"XXX...XXXXXXXXXXXXooo...XXX...XXXXXXXXXooooooXXXXXX...XXXXXX      XXXXXXXXXoooXXXXXXXXXXXXXXXXXX",
"XXX...XXXXXXXXXXXXooo...XXX...XXXXXXXXXooooooXXXXXX...XXXXXX      XXXXXXXXXoooXXXXXXXXXXXXXXXXXX"
};
