/* XPM */
static char *_2629e7d88504ceff221dfb49338fcc8J4oemI6IyGN9mEAS[] = {
/* columns rows colors chars-per-pixel */
"96 96 5 1 ",
"  c black",
". c #DD7BE8",
"X c #F496F6",
"o c #EAC2F4",
"O c white",
/* pixels */
"                                                                                                ",
"                                                                                                ",
"                                                                                                ",
"                                                                                                ",
"                                                                                                ",
"                                                                                                ",
"                                             ...                                                ",
"                                             ...                                                ",
"                                             ...                                                ",
"                                          ......                                                ",
"                                          ......                                                ",
"                                          ......                                                ",
"                                          .........                                             ",
"                                          .........                                             ",
"                                          .........                                             ",
"                                       ............                                             ",
"                                       ............                                             ",
"                                       ............                                             ",
"                                 ...   ...............                                          ",
"                                 ...   ...............                                          ",
"                                 ...   ...............                                          ",
"                           ...      .........XXXXXXXXX...                                       ",
"                           ...      .........XXXXXXXXX...                                       ",
"                           ...      .........XXXXXXXXX...                                       ",
"                        ......      .........XXXXXXXXX......   ...                              ",
"                        ......      .........XXXXXXXXX......   ...                              ",
"                        ......      .........XXXXXXXXX......   ...                              ",
"                           ...............XXXoooooooooXXX.........                              ",
"                           ...............XXXoooooooooXXX.........                              ",
"                           ...............XXXoooooooooXXX.........                              ",
"                           ............XXXXXXoooooooooXXXXXX.........                           ",
"                           ............XXXXXXoooooooooXXXXXX.........                           ",
"                           ............XXXXXXoooooooooXXXXXX.........                           ",
"                        ......XXXXXXXXXXXXoooooo...ooooooXXXXXX...                              ",
"                        ......XXXXXXXXXXXXoooooo...ooooooXXXXXX...                              ",
"                        ......XXXXXXXXXXXXoooooo...ooooooXXXXXX...                              ",
"                     .........XXXXXXooooooooo.........ooooooXXX......                           ",
"                     .........XXXXXXooooooooo.........ooooooXXX......                           ",
"                     .........XXXXXXooooooooo.........ooooooXXX......                           ",
"                     ......XXXXXXoooooooooooo.........ooooooXXXXXXXXX......                     ",
"                     ......XXXXXXoooooooooooo.........ooooooXXXXXXXXX......                     ",
"                     ......XXXXXXoooooooooooo.........ooooooXXXXXXXXX......                     ",
"                     ......XXXXXXooooooooo...............oooooooooXXXXXX......                  ",
"                     ......XXXXXXooooooooo...............oooooooooXXXXXX......                  ",
"                     ......XXXXXXooooooooo...............oooooooooXXXXXX......                  ",
"                  ......XXXXXXXXXoooooo.....................oooooooooXXXXXX......   ...         ",
"                  ......XXXXXXXXXoooooo.....................oooooooooXXXXXX......   ...         ",
"                  ......XXXXXXXXXoooooo.....................oooooooooXXXXXX......   ...         ",
"               .........XXXXXXooooooooo........................oooooooooXXXXXX......            ",
"               .........XXXXXXooooooooo........................oooooooooXXXXXX......            ",
"               .........XXXXXXooooooooo........................oooooooooXXXXXX......            ",
"      ...      .........XXXoooooooooooo........................oooooooooXXX......               ",
"      ...      .........XXXoooooooooooo........................oooooooooXXX......               ",
"      ...      .........XXXoooooooooooo........................oooooooooXXX......               ",
"         .........XXX...XXXoooooo..............................oooooooooXXXXXX......            ",
"         .........XXX...XXXoooooo..............................oooooooooXXXXXX......            ",
"         .........XXX...XXXoooooo..............................oooooooooXXXXXX......            ",
"            ...XXX......XXXoooooo.................................ooooooXXXXXX.........         ",
"            ...XXX......XXXoooooo.................................ooooooXXXXXX.........         ",
"            ...XXX......XXXoooooo.................................ooooooXXXXXX.........         ",
"            ...XXX......XXXoooooo.................................ooooooXXXXXXXXX......      ...",
"            ...XXX......XXXoooooo.................................ooooooXXXXXXXXX......      ...",
"            ...XXX......XXXoooooo.................................ooooooXXXXXXXXX......      ...",
"               ......XXXoooooo....................................oooooooooXXXXXXXXX.........   ",
"               ......XXXoooooo....................................oooooooooXXXXXXXXX.........   ",
"               ......XXXoooooo....................................oooooooooXXXXXXXXX.........   ",
"            .........XXXoooooo..................OOO...............oooooooooXXXXXXXXX......      ",
"            .........XXXoooooo..................OOO...............oooooooooXXXXXXXXX......      ",
"            .........XXXoooooo..................OOO...............oooooooooXXXXXXXXX......      ",
"         ...XXX...XXXoooooo..................OOOOOOOOO............oooooooooXXXXXXXXXXXX...      ",
"         ...XXX...XXXoooooo..................OOOOOOOOO............oooooooooXXXXXXXXXXXX...      ",
"         ...XXX...XXXoooooo..................OOOOOOOOO............oooooooooXXXXXXXXXXXX...      ",
"   ...   ...XXX...XXXoooooo...............OOOOOOOOOOOOOOO.........ooooooooooooXXXXXX.........   ",
"   ...   ...XXX...XXXoooooo...............OOOOOOOOOOOOOOO.........ooooooooooooXXXXXX.........   ",
"   ...   ...XXX...XXXoooooo...............OOOOOOOOOOOOOOO.........ooooooooooooXXXXXX.........   ",
"      .........XXXooooooooo............OOOOOOOOOOOOOOOOOO............oooooooooXXXXXXXXX...      ",
"      .........XXXooooooooo............OOOOOOOOOOOOOOOOOO............oooooooooXXXXXXXXX...      ",
"      .........XXXooooooooo............OOOOOOOOOOOOOOOOOO............oooooooooXXXXXXXXX...      ",
"      XXX...XXXXXXoooooo............OOOOOOOOOOOOOOOOOOOOOOOO............ooooooXXXXXXXXXXXX...   ",
"      XXX...XXXXXXoooooo............OOOOOOOOOOOOOOOOOOOOOOOO............ooooooXXXXXXXXXXXX...   ",
"      XXX...XXXXXXoooooo............OOOOOOOOOOOOOOOOOOOOOOOO............ooooooXXXXXXXXXXXX...   ",
"   ......XXXXXXoooooo............OOOOOOOOOOOOOOOOOOOOOOOOOOOOOO............ooooooXXXXXX...      ",
"   ......XXXXXXoooooo............OOOOOOOOOOOOOOOOOOOOOOOOOOOOOO............ooooooXXXXXX...      ",
"   ......XXXXXXoooooo............OOOOOOOOOOOOOOOOOOOOOOOOOOOOOO............ooooooXXXXXX...      ",
"      ...XXXXXXoooooo.........OOOOOOOOOOOOOOOOOOOOOOOOOOOOOOOOOOOO............oooXXXXXX...      ",
"      ...XXXXXXoooooo.........OOOOOOOOOOOOOOOOOOOOOOOOOOOOOOOOOOOO............oooXXXXXX...      ",
"      ...XXXXXXoooooo.........OOOOOOOOOOOOOOOOOOOOOOOOOOOOOOOOOOOO............oooXXXXXX...      ",
"   ......XXXoooooo...............OOOOOOOOOOOOOOOOOOOOOOOOOOOOOOOOO............oooXXXXXXXXX...   ",
"   ......XXXoooooo...............OOOOOOOOOOOOOOOOOOOOOOOOOOOOOOOOO............oooXXXXXXXXX...   ",
"   ......XXXoooooo...............OOOOOOOOOOOOOOOOOOOOOOOOOOOOOOOOO............oooXXXXXXXXX...   ",
"   ...XXXXXXoooooo............OOOOOOOOOOOOOOOOOOOOOOOOOOOOOOOOOOOOOOO.........ooooooXXXXXXXXX...",
"   ...XXXXXXoooooo............OOOOOOOOOOOOOOOOOOOOOOOOOOOOOOOOOOOOOOO.........ooooooXXXXXXXXX...",
"   ...XXXXXXoooooo............OOOOOOOOOOOOOOOOOOOOOOOOOOOOOOOOOOOOOOO.........ooooooXXXXXXXXX...",
"......XXXXXXoooooo.........OOOOOOOOOOOOOOOOOOOOOOOOOOOOOOOOOOOOOOOOOO............oooXXXXXXXXX...",
"......XXXXXXoooooo.........OOOOOOOOOOOOOOOOOOOOOOOOOOOOOOOOOOOOOOOOOO............oooXXXXXXXXX...",
"......XXXXXXoooooo.........OOOOOOOOOOOOOOOOOOOOOOOOOOOOOOOOOOOOOOOOOO............oooXXXXXXXXX..."
};
